HIERARCHY
ROOT Hips
{
	OFFSET -224.689499 91.882057 -431.625488
	CHANNELS 6 Xposition Yposition Zposition Zrotation Yrotation Xrotation
	JOINT LeftUpLeg
	{
		OFFSET 0.103455 1.857841 10.548523
		CHANNELS 6 Xposition Yposition Zposition Zrotation Yrotation Xrotation
		JOINT LeftLeg
		{
			OFFSET 43.500000 -0.000046 0.000000
			CHANNELS 6 Xposition Yposition Zposition Zrotation Yrotation Xrotation
			JOINT LeftFoot
			{
				OFFSET 42.372192 0.000015 0.000000
				CHANNELS 6 Xposition Yposition Zposition Zrotation Yrotation Xrotation
				JOINT LeftToe
				{
					OFFSET 17.300003 0.000000 0.000000
					CHANNELS 6 Xposition Yposition Zposition Zrotation Yrotation Xrotation
					End Site
					{
						OFFSET 0.000000 0.099998 0.000000
					}
				}
			}
		}
	}
	JOINT RightUpLeg
	{
		OFFSET 0.103455 1.857826 -10.548523
		CHANNELS 6 Xposition Yposition Zposition Zrotation Yrotation Xrotation
		JOINT RightLeg
		{
			OFFSET 43.500046 -0.000031 0.000000
			CHANNELS 6 Xposition Yposition Zposition Zrotation Yrotation Xrotation
			JOINT RightFoot
			{
				OFFSET 42.372253 0.000000 0.000000
				CHANNELS 6 Xposition Yposition Zposition Zrotation Yrotation Xrotation
				JOINT RightToe
				{
					OFFSET 17.299995 -0.000008 0.000031
					CHANNELS 6 Xposition Yposition Zposition Zrotation Yrotation Xrotation
					End Site
					{
						OFFSET 0.000000 0.099998 0.000000
					}
				}
			}
		}
	}
	JOINT Spine
	{
		OFFSET 6.901962 -2.603729 0.000000
		CHANNELS 6 Xposition Yposition Zposition Zrotation Yrotation Xrotation
		JOINT Spine1
		{
			OFFSET 12.588104 0.000008 0.000000
			CHANNELS 6 Xposition Yposition Zposition Zrotation Yrotation Xrotation
			JOINT Spine2
			{
				OFFSET 12.343201 -0.000015 0.000000
				CHANNELS 6 Xposition Yposition Zposition Zrotation Yrotation Xrotation
				JOINT Neck
				{
					OFFSET 25.832886 0.000023 0.000000
					CHANNELS 6 Xposition Yposition Zposition Zrotation Yrotation Xrotation
					JOINT Head
					{
						OFFSET 11.766602 -0.000008 0.000000
						CHANNELS 6 Xposition Yposition Zposition Zrotation Yrotation Xrotation
						End Site
						{
							OFFSET 0.000000 0.099998 0.000000
						}
					}
				}
				JOINT LeftShoulder
				{
					OFFSET 19.745911 -1.480347 6.000092
					CHANNELS 6 Xposition Yposition Zposition Zrotation Yrotation Xrotation
					JOINT LeftArm
					{
						OFFSET 11.284134 0.000015 -0.000031
						CHANNELS 6 Xposition Yposition Zposition Zrotation Yrotation Xrotation
						JOINT LeftForeArm
						{
							OFFSET 33.000046 -0.000015 0.000031
							CHANNELS 6 Xposition Yposition Zposition Zrotation Yrotation Xrotation
							JOINT LeftHand
							{
								OFFSET 25.200005 0.000031 0.000000
								CHANNELS 6 Xposition Yposition Zposition Zrotation Yrotation Xrotation
								End Site
								{
									OFFSET 0.000000 0.099998 0.000000
								}
							}
						}
					}
				}
				JOINT RightShoulder
				{
					OFFSET 19.746094 -1.480354 -6.000092
					CHANNELS 6 Xposition Yposition Zposition Zrotation Yrotation Xrotation
					JOINT RightArm
					{
						OFFSET 11.284134 0.000000 0.000000
						CHANNELS 6 Xposition Yposition Zposition Zrotation Yrotation Xrotation
						JOINT RightForeArm
						{
							OFFSET 33.000107 0.000015 0.000000
							CHANNELS 6 Xposition Yposition Zposition Zrotation Yrotation Xrotation
							JOINT RightHand
							{
								OFFSET 25.199760 0.000122 0.000427
								CHANNELS 6 Xposition Yposition Zposition Zrotation Yrotation Xrotation
								End Site
								{
									OFFSET 0.000000 0.099998 0.000000
								}
							}
						}
					}
				}
			}
		}
	}
}
MOTION
Frames: 6
Frame Time: 0.041667
-224.689499 91.882057 -431.625519 91.911438 5.797273 88.877003 0.103461 1.857874 10.548500 6.174473 -178.642696 -2.199576 43.499989 -0.000046 0.000068 -8.189492 -1.405895 -8.436304 42.372196 0.000057 -0.000019 72.185448 4.507118 -5.155256 17.300007 0.000008 0.000031 21.454557 0.003097 -0.000001 0.103451 1.857838 -10.548541 8.567116 173.050793 8.583302 43.500046 -0.000055 -0.000028 -10.045297 3.093131 10.020027 42.372250 0.000010 -0.000035 77.536437 -5.597354 6.281056 17.299992 0.000013 0.000021 21.454560 -0.003116 -0.000018 6.901966 -2.603733 0.000009 6.938950 -0.425479 0.083695 12.588084 0.000022 0.000006 3.863258 -0.856897 0.159520 12.343182 -0.000038 -0.000005 3.545123 -0.855727 0.162024 25.832872 0.000011 -0.000003 5.062786 -5.967228 -2.955439 11.766607 -0.000013 0.000013 -18.981922 10.359067 -7.856502 19.745895 -1.480346 6.000097 -95.384808 -86.109629 -86.694314 11.284138 -0.000031 -0.000024 -1.744817 13.837001 -10.454340 33.000069 -0.000034 0.000063 -23.351689 -15.926111 1.189658 25.200027 0.000062 0.000013 8.269974 -3.007812 30.896914 19.746017 -1.480354 -6.000088 -101.166938 82.060816 81.176245 11.284117 -0.000019 -0.000019 -5.484384 -12.039372 6.737670 33.000103 0.000046 0.000022 -22.244693 15.926983 -1.200330 25.199753 0.000076 0.000498 7.052540 3.369542 -14.328741 
-224.692001 91.882370 -431.627106 91.911438 5.800984 88.877010 0.103491 1.857834 10.548581 6.175988 -178.641194 -2.187691 43.499989 -0.000103 0.000016 -8.188872 -1.407786 -8.446553 42.372177 0.000042 0.000031 72.185448 4.511767 -5.155251 17.299990 0.000007 -0.000001 21.454558 0.003096 -0.000000 0.103474 1.857792 -10.548465 8.567128 173.051804 8.559110 43.500069 -0.000048 -0.000033 -10.053368 3.093140 10.031407 42.372250 0.000011 -0.000020 77.539927 -5.597371 6.284108 17.299955 -0.000018 0.000057 21.454560 -0.003100 -0.000016 6.901972 -2.603769 0.000016 6.938955 -0.425475 0.083689 12.588093 -0.000052 0.000011 3.864557 -0.856896 0.159521 12.343193 -0.000029 0.000035 3.546437 -0.855739 0.162017 25.832882 0.000011 0.000000 5.070361 -5.961698 -2.948828 11.766638 0.000067 0.000006 -18.979438 10.347430 -7.843745 19.745914 -1.480325 6.000135 -95.554866 -86.094398 -86.525205 11.284131 0.000034 -0.000046 -1.771234 13.811281 -10.493053 33.000038 -0.000057 -0.000013 -23.340939 -15.908619 1.189661 25.200039 -0.000031 0.000034 8.258080 -3.011261 30.884490 19.746090 -1.480362 -6.000027 -101.216853 82.066075 81.125859 11.284132 -0.000016 0.000063 -5.469464 -12.044235 6.762006 33.000134 -0.000004 0.000018 -22.263241 15.927381 -1.200320 25.199722 0.000126 0.000431 7.045758 3.391574 -14.372207 
-224.714798 91.882645 -431.638702 91.906342 5.833431 88.884257 0.103453 1.857878 10.548546 6.191371 -178.619282 -2.155480 43.499981 -0.000059 0.000009 -8.212513 -1.418305 -8.461156 42.372177 0.000044 0.000011 72.190701 4.523059 -5.153861 17.300005 -0.000024 -0.000037 21.454557 0.003092 0.000001 0.103442 1.857876 -10.548497 8.567130 173.069316 8.574098 43.500065 -0.000074 -0.000046 -10.101487 3.086719 10.024016 42.372242 0.000002 -0.000018 77.563731 -5.587698 6.304092 17.300037 -0.000021 0.000073 21.454557 -0.003107 -0.000016 6.901951 -2.603693 0.000011 6.946524 -0.425478 0.083692 12.588123 0.000022 0.000002 3.879719 -0.856890 0.159521 12.343184 -0.000038 0.000038 3.561585 -0.855740 0.162021 25.832893 0.000019 -0.000017 5.119894 -5.978804 -2.900661 11.766602 0.000050 -0.000015 -19.015682 10.383657 -7.811533 19.745905 -1.480352 6.000074 -95.425263 -86.045507 -86.659364 11.284157 -0.000030 0.000008 -1.834494 13.815130 -10.613019 33.000042 -0.000034 0.000024 -23.375281 -15.924482 1.189656 25.199974 0.000060 -0.000051 8.254876 -3.091654 30.828318 19.746050 -1.480350 -6.000111 -101.381358 82.080507 80.959264 11.284107 0.000047 -0.000008 -5.438445 -12.074321 6.762905 33.000103 -0.000008 0.000001 -22.289829 15.967946 -1.200341 25.199764 0.000162 0.000432 7.010453 3.451662 -14.264403 
-224.735596 91.882156 -431.649902 91.899826 5.856700 88.896046 0.103472 1.857848 10.548523 6.191192 -178.587727 -2.230898 43.499985 -0.000059 -0.000073 -8.252284 -1.426530 -8.399507 42.372192 0.000053 -0.000031 72.199601 4.470673 -5.181768 17.299973 -0.000005 -0.000001 21.454558 0.003096 0.000000 0.103462 1.857777 -10.548570 8.564316 173.098591 8.583304 43.500046 -0.000040 0.000012 -10.140931 3.067795 10.032540 42.372269 -0.000023 0.000022 77.565377 -5.597647 6.287301 17.299955 0.000013 0.000034 21.454560 -0.003110 -0.000017 6.901971 -2.603769 -0.000002 6.949122 -0.427784 0.083689 12.588111 0.000029 0.000014 3.884862 -0.856912 0.159520 12.343185 0.000014 -0.000005 3.566729 -0.855733 0.173241 25.832899 0.000071 0.000009 5.195018 -5.944374 -2.903735 11.766600 -0.000008 -0.000012 -19.038743 10.370596 -7.803933 19.745920 -1.480258 6.000093 -95.728305 -86.031471 -86.356582 11.284133 0.000043 -0.000005 -1.891014 13.719202 -10.661563 33.000023 -0.000023 0.000017 -23.425527 -15.880781 1.189654 25.200020 -0.000004 0.000037 8.205700 -3.135668 30.962849 19.746080 -1.480337 -6.000072 -101.332311 82.033338 81.012525 11.284128 -0.000005 0.000043 -5.445636 -12.116722 6.771694 33.000111 0.000038 0.000039 -22.283723 15.965632 -1.200323 25.199793 0.000108 0.000455 7.011240 3.459556 -14.334591 
-224.754501 91.879036 -431.659393 91.895366 5.904346 88.907466 0.103475 1.857773 10.548495 6.224129 -178.563097 -2.216337 43.499981 -0.000031 0.000044 -8.263788 -1.440772 -8.398159 42.372192 0.000010 -0.000021 72.175381 4.465271 -5.194493 17.299978 0.000032 -0.000023 21.454557 0.003085 0.000001 0.103476 1.857746 -10.548497 8.598849 173.113986 8.606087 43.500069 -0.000065 -0.000003 -10.167315 3.062921 10.035162 42.372246 0.000021 -0.000066 77.581913 -5.594049 6.309851 17.299994 0.000006 0.000095 21.454562 -0.003111 -0.000016 6.901964 -2.603833 0.000000 6.957459 -0.430177 0.083691 12.588068 0.000034 0.000001 3.901542 -0.861317 0.159530 12.343209 0.000001 0.000007 3.583414 -0.860159 0.171038 25.832878 0.000011 0.000025 5.254616 -5.954422 -2.908915 11.766613 0.000000 -0.000042 -19.057560 10.382816 -7.814516 19.745901 -1.480365 6.000105 -95.825409 -85.986037 -86.263069 11.284130 0.000029 0.000002 -1.931183 13.702342 -10.636447 33.000065 -0.000065 -0.000005 -23.487533 -15.933761 1.189660 25.200031 0.000054 0.000019 8.087768 -3.246713 31.042110 19.746058 -1.480349 -6.000055 -101.424163 82.013134 80.921964 11.284121 -0.000053 0.000021 -5.463752 -12.111764 6.877247 33.000145 0.000019 0.000055 -22.267351 15.885020 -1.200321 25.199768 0.000117 0.000467 6.986746 3.455253 -14.388839 
-224.775711 91.876915 -431.673706 91.891289 5.949114 88.912595 0.103462 1.857899 10.548498 6.250984 -178.544096 -2.199985 43.499981 -0.000025 -0.000031 -8.278567 -1.444290 -8.396272 42.372192 -0.000008 0.000004 72.164090 4.462840 -5.197425 17.299969 -0.000015 -0.000011 21.454555 0.003078 -0.000001 0.103443 1.857872 -10.548508 8.619557 173.132209 8.587973 43.500057 -0.000078 0.000044 -10.191233 3.064130 10.044553 42.372242 -0.000006 -0.000038 77.588360 -5.604181 6.296723 17.300037 0.000019 0.000030 21.454555 -0.003112 -0.000018 6.901960 -2.603720 0.000011 6.966067 -0.432610 0.083699 12.588106 0.000008 -0.000008 3.918795 -0.866990 0.159518 12.343189 0.000039 -0.000006 3.600657 -0.865868 0.164754 25.832897 0.000003 0.000004 5.269367 -5.956285 -2.900063 11.766623 -0.000011 -0.000002 -19.025067 10.403147 -7.809105 19.745911 -1.480355 6.000103 -95.873801 -85.906773 -86.221016 11.284129 -0.000051 -0.000064 -2.007452 13.652932 -10.671660 33.000031 -0.000076 0.000039 -23.507375 -15.925443 1.189653 25.200005 0.000028 0.000003 8.045160 -3.283769 31.110552 19.746082 -1.480396 -6.000082 -101.575998 82.033878 80.767725 11.284117 0.000001 -0.000009 -5.453698 -12.149703 6.918343 33.000111 0.000008 -0.000028 -22.256824 15.913711 -1.200337 25.199768 0.000089 0.000465 7.020929 3.430419 -14.273238 
